Coordinates
version=1
nRows=14
nColumns=46
inDegrees=yes

Units are S.I. units (second, meters, Newtons, ...)
Angles are in degrees.

endheader
time	pelvis_tilt	pelvis_list	pelvis_rotation	pelvis_tx	pelvis_ty	pelvis_tz	bb_angle	bb_tx	bb_ty	bb_tz	hip_flexion_r	hip_adduction_r	hip_rotation_r	knee_angle_r	knee_angle_r_beta	ankle_angle_r	subtalar_angle_r	mtp_angle_r	crank_angle_r	hip_flexion_l	hip_adduction_l	hip_rotation_l	knee_angle_l	knee_angle_l_beta	ankle_angle_l	subtalar_angle_l	mtp_angle_l	crank_angle_l	lumbar_extension	lumbar_bending	lumbar_rotation	arm_flex_r	arm_add_r	arm_rot_r	elbow_flex_r	pro_sup_r	wrist_flex_r	wrist_dev_r	arm_flex_l	arm_add_l	arm_rot_l	elbow_flex_l	pro_sup_l	wrist_flex_l	wrist_dev_l
      2.50500000	     -3.95660610	      4.90805306	     -1.93259220	      0.06742773	      1.16435503	     -0.23039708	      0.00000000	      0.50000000	      0.00000000	      0.25000000	     33.35252977	     -6.13383652	      7.11268495	     33.39439698	      0.58284218	      2.75099195	     -2.91026706	      0.00000000	      0.00000000	     68.66081527	     -3.92608763	     -1.38147337	    108.79043094	      1.89875121	    -14.42554994	    -13.53521519	      0.00000000	      0.00000000	    -62.95571011	     -0.71229217	     -2.90665170	     88.62799763	    -10.33230563	     46.93865009	     42.30570793	     29.36125309	      0.00000000	      0.00000000	     88.33588622	    -18.58967808	     51.40635446	     36.48317436	     44.65886815	      0.00000000	      0.00000000
      2.51000000	     -3.78010436	      5.83486713	     -1.78062195	      0.06912161	      1.16422155	     -0.22801522	      0.00000000	      0.50000000	      0.00000000	      0.25000000	     32.01833532	     -7.18161522	      6.79263719	     32.34623649	      0.56454833	      2.63128691	     -2.31319508	      0.00000000	      0.00000000	     69.93356112	     -4.09221235	     -2.00639522	    109.53710554	      1.91178314	    -15.56851551	    -12.54633271	      0.00000000	      0.00000000	    -62.84611946	     -1.66448867	     -3.50978625	     88.24041959	    -10.81819283	     46.94821250	     42.13565006	     29.51551957	      0.00000000	      0.00000000	     88.27739614	    -17.78771165	     51.65919174	     36.28431977	     44.63164321	      0.00000000	      0.00000000
      2.51500000	     -3.71770605	      6.73397494	     -1.53281660	      0.07078367	      1.16383142	     -0.22594095	      0.00000000	      0.50000000	      0.00000000	      0.25000000	     30.94685792	     -8.26020073	      6.36324655	     31.60566272	      0.55162288	      2.56852085	     -1.56895881	      0.00000000	      0.00000000	     71.28161265	     -4.14479412	     -2.62849367	    110.19188351	      1.92321118	    -16.63273904	    -11.71864988	      0.00000000	      0.00000000	    -62.55545288	     -2.61624345	     -3.61410187	     87.67376480	    -12.14586306	     47.22328986	     42.25853265	     30.42893074	      0.00000000	      0.00000000	     88.56682113	    -15.71026037	     52.81498047	     33.93737902	     44.20808541	      0.00000000	      0.00000000
      2.52000000	     -3.70474420	      7.57461600	     -1.29145244	      0.07241972	      1.16343970	     -0.22400388	      0.00000000	      0.50000000	      0.00000000	      0.25000000	     30.01107513	     -9.26718261	      5.89479414	     31.05430914	      0.54199994	      2.63279869	     -0.93988849	      0.00000000	      0.00000000	     72.54225271	     -4.17318160	     -3.06602964	    110.77868185	      1.93345274	    -16.97983821	    -10.22277683	      0.00000000	      0.00000000	    -62.29437189	     -3.57129757	     -3.82357492	     86.98219271	    -13.23121627	     46.82146626	     42.48646450	     31.47742534	      0.00000000	      0.00000000	     88.67525672	    -14.04253234	     53.54424054	     32.55725773	     43.77732314	      0.00000000	      0.00000000
      2.52500000	     -3.67572601	      8.42586572	     -0.96815041	      0.07386541	      1.16328101	     -0.22206846	      0.00000000	      0.50000000	      0.00000000	      0.25000000	     29.14456106	    -10.29240926	      5.41552952	     30.70283683	      0.53586559	      2.67885539	     -0.47143023	      0.00000000	      0.00000000	     73.62381716	     -4.08362496	     -3.60357240	    111.18515968	      1.94054712	    -17.06344914	     -9.12626463	      0.00000000	      0.00000000	    -62.12542912	     -4.44005369	     -4.34704979	     86.35696748	    -13.82446189	     46.36762743	     42.43080905	     31.80849310	      0.00000000	      0.00000000	     88.70788854	    -12.91344801	     53.93867711	     31.76133451	     43.57828898	      0.00000000	      0.00000000
      2.53000000	     -3.78497569	      9.12904892	     -0.62981144	      0.07522048	      1.16305578	     -0.22024607	      0.00000000	      0.50000000	      0.00000000	      0.25000000	     28.50430093	    -11.09087516	      5.06688653	     30.51273313	      0.53254766	      2.35507624	     -0.59172752	      0.00000000	      0.00000000	     74.74754245	     -4.00089758	     -4.07037368	    111.47338657	      1.94557762	    -17.19098780	     -8.59644456	      0.00000000	      0.00000000	    -61.88524025	     -5.30158336	     -4.90519842	     85.77438591	    -14.35623614	     46.11882140	     42.28836121	     31.87251843	      0.00000000	      0.00000000	     88.66377345	    -12.16710963	     54.15433290	     31.68558599	     43.56141260	      0.00000000	      0.00000000
      2.53500000	     -3.87194806	      9.80846596	     -0.27628830	      0.07621567	      1.16299668	     -0.21867840	      0.00000000	      0.50000000	      0.00000000	      0.25000000	     28.00480861	    -11.87385874	      4.72463065	     30.59729652	      0.53402357	      2.07207642	     -0.68396744	      0.00000000	      0.00000000	     75.66281865	     -3.78804294	     -4.56583827	    111.65478263	      1.94874358	    -16.76095747	     -8.19454244	      0.00000000	      0.00000000	    -61.70813369	     -5.97385261	     -5.35976111	     85.26484297	    -14.85829414	     45.76335778	     42.21449434	     31.93919735	      0.00000000	      0.00000000	     88.68056269	    -11.31412154	     54.39359065	     31.30763153	     43.49196252	      0.00000000	      0.00000000
      2.54000000	     -3.89876106	     10.42691212	      0.04715304	      0.07714813	      1.16306229	     -0.21680993	      0.00000000	      0.50000000	      0.00000000	      0.25000000	     27.58246417	    -12.54817772	      4.45277393	     30.98074252	      0.54071596	      1.96082204	     -0.86509599	      0.00000000	      0.00000000	     76.38197774	     -3.59986379	     -5.02094851	    111.73520314	      1.95014719	    -16.02486471	     -7.82311587	      0.00000000	      0.00000000	    -61.59309620	     -6.82183270	     -5.11753978	     84.14701882	    -16.15169164	     43.58202543	     43.24592023	     32.55097841	      0.00000000	      0.00000000	     89.01649821	     -8.59080138	     55.14994452	     27.91854768	     42.71820159	      0.00000000	      0.00000000
      2.54500000	     -4.00104644	     10.92735388	      0.52392014	      0.07766179	      1.16320776	     -0.21532367	      0.00000000	      0.50000000	      0.00000000	      0.25000000	     27.32893319	    -13.10379823	      4.25028312	     31.55289776	      0.55070195	      1.56172539	     -1.52422287	      0.00000000	      0.00000000	     77.12272538	     -3.19458715	     -5.35518240	    111.65411451	      1.94873192	    -15.34983942	     -7.79690393	      0.00000000	      0.00000000	    -61.58308447	     -7.17830290	     -5.64043392	     83.86969259	    -16.47796936	     43.35777374	     43.21713387	     32.61082662	      0.00000000	      0.00000000	     89.05964392	     -8.14317677	     55.13828156	     27.96418876	     42.66347834	      0.00000000	      0.00000000
      2.55000000	     -4.16020213	     11.47792613	      1.07298995	      0.07791939	      1.16341271	     -0.21396698	      0.00000000	      0.50000000	      0.00000000	      0.25000000	     27.24977744	    -13.68852473	      4.12557209	     32.31785667	      0.56405301	      1.03285125	     -2.49152540	      0.00000000	      0.00000000	     77.82720347	     -2.59419852	     -5.69081650	    111.41207430	      1.94450752	    -14.38275231	     -7.95352487	      0.00000000	      0.00000000	    -61.55041971	     -7.53918123	     -6.16944319	     83.49740054	    -16.84307036	     42.77055662	     43.37527946	     32.73583182	      0.00000000	      0.00000000	     89.14983798	     -7.44310973	     54.88881721	     27.62916617	     42.44892268	      0.00000000	      0.00000000
      2.55500000	     -4.28465531	     11.83720465	      1.56596159	      0.07800132	      1.16364380	     -0.21263446	      0.00000000	      0.50000000	      0.00000000	      0.25000000	     27.34252635	    -14.01779322	      4.15076160	     33.42678204	      0.58340741	      0.38144749	     -3.46693408	      0.00000000	      0.00000000	     78.44018954	     -2.08395592	     -5.85408837	    111.11113891	      1.93925521	    -13.50696573	     -8.00746724	      0.00000000	      0.00000000	    -61.58151931	     -7.77045552	     -6.52997506	     83.20023958	    -17.19363542	     42.13623697	     43.53786467	     32.83645026	      0.00000000	      0.00000000	     89.23558150	     -6.80474053	     54.53784670	     27.38106583	     42.23303909	      0.00000000	      0.00000000
      2.56000000	     -4.45741876	     11.99947496	      1.97089048	      0.07779655	      1.16376622	     -0.21112436	      0.00000000	      0.50000000	      0.00000000	      0.25000000	     27.64124282	    -14.03113230	      4.44005124	     34.77821670	      0.60699439	     -0.48726983	     -4.90906443	      0.00000000	      0.00000000	     79.08338782	     -1.70458014	     -5.79112936	    110.72405398	      1.93249930	    -12.54587311	     -7.59379666	      0.00000000	      0.00000000	    -61.62711974	     -8.11495341	     -6.21779776	     82.07525921	    -18.02438127	     38.88386027	     45.12290613	     33.58064174	      0.00000000	      0.00000000	     89.30513672	     -4.79256733	     52.17662590	     26.27847111	     40.87676307	      0.00000000	      0.00000000
      2.56500000	     -4.38031205	     12.12527342	      2.51086584	      0.07742357	      1.16423856	     -0.20995157	      0.00000000	      0.50000000	      0.00000000	      0.25000000	     27.78008762	    -14.14032570	      4.47684939	     36.36816441	      0.63474421	     -1.11481647	     -5.57405454	      0.00000000	      0.00000000	     79.38895890	     -1.09483486	     -5.70377140	    110.18661714	      1.92311926	    -11.79129445	     -7.78482172	      0.00000000	      0.00000000	    -61.90745121	     -8.03113261	     -6.52362377	     82.05132818	    -18.22696092	     38.73932065	     45.09823968	     33.60482811	      0.00000000	      0.00000000	     89.40725991	     -4.56340085	     52.08882758	     26.41908737	     40.83375502	      0.00000000	      0.00000000
      2.57000000	     -4.74762883	     12.44035544	      3.16071327	      0.07699777	      1.16420203	     -0.20904064	      0.00000000	      0.50000000	      0.00000000	      0.25000000	     28.59592379	    -14.39913937	      4.77942420	     38.24082656	      0.66742833	     -2.28367601	     -7.30911793	      0.00000000	      0.00000000	     80.01623314	     -0.28746167	     -5.73727306	    109.41696026	      1.90968621	    -10.83212382	     -7.44749590	      0.00000000	      0.00000000	    -61.93884196	     -8.23419160	     -6.74324915	     81.18481750	    -18.96552048	     36.43579420	     46.59099402	     34.56652778	      0.00000000	      0.00000000	     89.42495151	     -3.41986420	     49.54403191	     27.04556559	     39.32852757	      0.00000000	      0.00000000
